# xmcd
#
# Track frame offsets: 
#        150
#        8294
#        17915
#        28908
#        40916
#        50732
#        60882
#        72300
#        82714
#        95476
#        107681
#        119131
#        132053
#        149371
#        164435
#
# Disc length: 2350 seconds
#
# Revision: 0
# Processed by: cddbd v1.5.2PL0 Copyright (c) Steve Scherf et al.
# Submitted via: ExactAudioCopy v1.0b1
#
DISCID=c3092c0f
DTITLE=Various Artist - Brunswick Lost Soul - Volume 2
DYEAR=2011
DGENRE=R&B
TTITLE0=Johnny Jones and The King Casuals - It's Gonna Be Good
TTITLE1=Billy Butler - Burning Touch Of Love
TTITLE2=Marshal and The Chi-Lites - Baby It's Time
TTITLE3=Johnny Williams - Just A Little Misunderstanding
TTITLE4=Otis Leavill - Baby (Why Can't You Hear Me?)
TTITLE5=Major Lance - Since You've Been Gone
TTITLE6=Bobby Reed - You Are
TTITLE7=Marvin Smith - I Want Something To Remember You By
TTITLE8=Wales Wallace - Talk A Little Louder
TTITLE9=The Emperors - Karate Boogaloo
TTITLE10=Sidney Joe Qualls - How Can You Say Goodbye
TTITLE11=Isaac Hayes - Sweet Temptation
TTITLE12=Eddie McLoyd - Once You Fall In Love
TTITLE13=Walter Jackson - Easy Evil
TTITLE14=Little Richard - Try Some Of Mine
EXTD=
EXTT0=
EXTT1=
EXTT2=
EXTT3=
EXTT4=
EXTT5=
EXTT6=
EXTT7=
EXTT8=
EXTT9=
EXTT10=
EXTT11=
EXTT12=
EXTT13=
EXTT14=
PLAYORDER=
